M48
; DRILL file {KiCad 8.0.7} date 2025-01-12T17:22:55+0100
; FORMAT={-:-/ absolute / inch / decimal}
; #@! TF.CreationDate,2025-01-12T17:22:55+01:00
; #@! TF.GenerationSoftware,Kicad,Pcbnew,8.0.7
; #@! TF.FileFunction,Plated,1,2,PTH
FMAT,2
INCH
; #@! TA.AperFunction,Plated,PTH,ViaDrill
T1C0.0079
; #@! TA.AperFunction,Plated,PTH,ComponentDrill
T2C0.0079
; #@! TA.AperFunction,Plated,PTH,ViaDrill
T3C0.0118
; #@! TA.AperFunction,Plated,PTH,ComponentDrill
T4C0.0394
%
G90
G05
T1
X0.2992Y2.1417
X0.2992Y1.8386
X0.3307Y2.1417
X0.3307Y1.8386
X0.3622Y2.1417
X0.3661Y1.8386
X0.3976Y1.8858
X0.3976Y1.8189
X0.3976Y1.748
X0.3976Y1.248
X0.3976Y1.1772
X0.3976Y1.1102
X0.3976Y1.0433
X0.4094Y2.1102
X0.4094Y2.0787
X0.4094Y2.0472
X0.4094Y2.0157
X0.4094Y1.9606
X0.4094Y1.9291
X0.437Y0.9331
X0.4449Y2.1102
X0.4449Y2.0787
X0.4449Y2.0472
X0.4449Y2.0157
X0.4449Y1.9606
X0.4449Y1.9291
X0.4961Y2.2106
X0.4961Y2.063
X0.4961Y1.9252
X0.5Y0.7638
X0.5Y0.7165
X0.5Y0.6732
X0.5Y0.626
X0.5157Y0.5709
X0.5315Y1.9252
X0.5315Y1.8543
X0.5315Y1.7835
X0.5315Y1.7244
X0.562Y1.2126
X0.563Y2.2106
X0.563Y2.063
X0.563Y1.0079
X0.5669Y1.9252
X0.6181Y1.9646
X0.6181Y1.9331
X0.6235Y1.3007
X0.6339Y2.2106
X0.6339Y2.063
X0.6339Y2.0276
X0.6535Y1.9646
X0.6535Y1.9331
X0.6614Y0.5669
X0.6654Y1.8169
X0.6654Y1.7461
X0.6654Y0.7323
X0.6654Y0.6496
X0.6772Y1.0276
X0.6791Y1.06
X0.689Y2.1142
X0.689Y2.0827
X0.689Y2.0512
X0.689Y1.9961
X0.689Y1.9213
X0.7441Y0.9409
X0.7441Y0.9055
X0.7441Y0.8661
X0.7441Y0.8268
X0.7495Y1.3189
X0.752Y0.6772
X0.752Y0.6378
X0.752Y0.5984
X0.752Y0.5591
X0.752Y0.5197
X0.7785Y1.311
X0.7835Y2.1004
X0.7913Y0.8268
X0.7953Y0.6772
X0.8019Y2.1234
X0.8052Y1.8839
X0.8071Y1.0039
X0.8307Y2.1043
X0.8346Y0.8268
X0.8386Y1.8839
X0.8386Y0.6772
X0.8465Y1.0039
X0.878Y0.8268
X0.8819Y0.6772
X0.8858Y2.311
X0.8858Y2.2421
X0.8858Y2.1732
X0.8898Y1.0039
X0.8957Y1.8189
X0.8957Y1.75
X0.8957Y1.6811
X0.9203Y1.6604
X0.9213Y1.0354
X0.9213Y0.8268
X0.9252Y0.6772
X0.9331Y1.0039
X0.935Y1.9665
X0.935Y1.9173
X0.9409Y2.061
X0.9646Y0.8268
X0.9685Y0.6772
X0.9764Y1.0039
X1.0157Y0.6772
X1.0197Y0.7874
X1.0354Y0.5157
X1.0433Y1.5709
X1.0433Y1.5354
X1.0433Y1.4803
X1.0433Y1.4449
X1.0433Y1.3858
X1.0669Y0.8543
X1.1102Y0.5512
X1.122Y1.9665
X1.126Y2.1043
X1.1319Y2.2421
X1.1319Y2.1732
X1.1496Y1.4567
X1.1496Y1.3819
X1.1614Y1.2382
X1.1614Y1.1772
X1.1614Y1.1102
X1.1654Y1.0413
X1.189Y1.2795
X1.2087Y0.5512
X1.2205Y1.9665
X1.2205Y1.8976
X1.2333Y0.7274
X1.2953Y1.4567
X1.2953Y1.3819
X1.2953Y1.315
X1.311Y0.8898
X1.3622Y1.185
X1.3622Y1.1368
X1.3858Y0.5079
X1.3898Y1.2047
X1.4016Y1.0354
X1.4161Y1.22
X1.4173Y0.9646
X1.4764Y1.6122
X1.5Y0.5984
X1.5354Y1.0118
X1.5787Y1.5512
X1.6063Y0.7766
X1.626Y1.1496
X1.6378Y1.2362
X1.6437Y1.5531
X1.6437Y0.6673
X1.6546Y1.1427
X1.6801Y0.5443
X1.6929Y2.1634
X1.6969Y2.0197
X1.7126Y1.6614
X1.7323Y0.9429
X1.7343Y1.9429
X1.7421Y0.6673
X1.7598Y1.2165
X1.7717Y1.7598
X1.7874Y0.9449
X1.8435Y0.9065
X1.8583Y0.9331
X1.8661Y1.0984
X1.878Y1.2638
X1.878Y1.2008
X1.8819Y0.7402
X1.9094Y0.6378
X1.939Y1.7598
X1.9488Y0.6673
X1.9567Y1.1102
X1.9724Y1.437
X1.9882Y1.6122
X2.0177Y1.3366
X2.0276Y2.124
X2.0276Y2.0551
X2.0551Y2.1575
X2.1732Y0.408
X2.1811Y0.3622
X2.185Y0.4803
X2.2047Y2.3406
X2.2047Y2.0157
X2.2047Y1.6909
X2.2047Y1.3661
X2.2047Y1.0413
X2.2047Y0.7165
X2.2146Y0.5787
X2.2244Y2.2028
X2.2244Y1.878
X2.2244Y1.5531
X2.2244Y1.2283
X2.2244Y0.9035
X2.313Y0.4606
X2.315Y0.3661
X2.3524Y0.3189
X2.3543Y0.626
X2.3898Y2.1299
X2.4213Y0.3189
X2.4803Y2.3406
X2.4803Y2.0157
X2.4803Y1.6909
X2.4803Y1.3661
X2.4803Y1.0413
X2.4803Y0.7165
T2
X0.7589Y1.9941
X0.7756Y1.1811
X0.7756Y1.1417
X0.7756Y1.1024
X0.7884Y2.0246
X0.7884Y1.9941
X0.7884Y1.9636
X0.815Y1.1811
X0.815Y1.1417
X0.815Y1.1024
X0.8297Y2.0246
X0.8297Y1.9941
X0.8297Y1.9636
X0.8543Y1.1811
X0.8543Y1.1417
X0.8543Y1.1024
X0.8593Y1.9941
T3
X2.3071Y2.1594
X2.3071Y1.8327
X2.311Y1.5098
X2.311Y1.187
X2.311Y0.8642
X2.4094Y2.1594
X2.4094Y1.8327
X2.4094Y1.5098
X2.4094Y1.187
X2.4094Y0.8642
T4
X0.3287Y2.0709
X0.3287Y1.9094
X0.4331Y0.4016
X0.6693Y0.4016
X1.2537Y0.4006
X1.3537Y0.4006
X1.4537Y0.4006
X1.599Y0.4006
X1.699Y0.4006
X1.7392Y2.3159
X1.799Y0.4006
X1.8392Y2.3159
X1.899Y0.4006
X1.9392Y2.3159
X1.999Y0.4006
X2.5728Y2.3514
X2.5728Y2.2514
X2.5728Y2.1514
X2.5728Y2.0069
X2.5728Y1.9069
X2.5728Y1.8069
X2.5728Y1.6624
X2.5728Y1.5624
X2.5728Y1.4624
X2.5728Y1.3179
X2.5728Y1.2179
X2.5728Y1.1179
X2.5728Y0.9734
X2.5728Y0.8734
X2.5728Y0.7734
X2.5728Y0.6289
X2.5728Y0.5289
X2.5728Y0.4289
X2.6728Y2.3514
X2.6728Y2.2514
X2.6728Y2.1514
X2.6728Y2.0069
X2.6728Y1.9069
X2.6728Y1.8069
X2.6728Y1.6624
X2.6728Y1.5624
X2.6728Y1.4624
X2.6728Y1.3179
X2.6728Y1.2179
X2.6728Y1.1179
X2.6728Y0.9734
X2.6728Y0.8734
X2.6728Y0.7734
X2.6728Y0.6289
X2.6728Y0.5289
X2.6728Y0.4289
M30
