%TF.GenerationSoftware,KiCad,Pcbnew,8.0.7*%
%TF.CreationDate,2025-01-12T17:23:01+01:00*%
%TF.ProjectId,MermaidControlUnit,4d65726d-6169-4644-936f-6e74726f6c55,rev?*%
%TF.SameCoordinates,PXb2564c0PY59d60c0*%
%TF.FileFunction,Soldermask,Bot*%
%TF.FilePolarity,Negative*%
%FSLAX46Y46*%
G04 Gerber Fmt 4.6, Leading zero omitted, Abs format (unit mm)*
G04 Created by KiCad (PCBNEW 8.0.7) date 2025-01-12 17:23:01*
%MOMM*%
%LPD*%
G01*
G04 APERTURE LIST*
%ADD10R,2.000000X2.000000*%
%ADD11R,1.700000X1.700000*%
%ADD12O,1.700000X1.700000*%
G04 APERTURE END LIST*
D10*
%TO.C,J4*%
X17000000Y10200000D03*
%TD*%
D11*
%TO.C,J6*%
X65350000Y59725000D03*
D12*
X67890000Y59725000D03*
X65350000Y57185000D03*
X67890000Y57185000D03*
X65350000Y54645000D03*
X67890000Y54645000D03*
%TD*%
D11*
%TO.C,J11*%
X65350000Y15975000D03*
D12*
X67890000Y15975000D03*
X65350000Y13435000D03*
X67890000Y13435000D03*
X65350000Y10895000D03*
X67890000Y10895000D03*
%TD*%
D11*
%TO.C,J2*%
X36925000Y10175000D03*
D12*
X34385000Y10175000D03*
X31845000Y10175000D03*
%TD*%
D11*
%TO.C,J3*%
X44175000Y58825000D03*
D12*
X46715000Y58825000D03*
X49255000Y58825000D03*
%TD*%
D11*
%TO.C,J10*%
X65350000Y42225000D03*
D12*
X67890000Y42225000D03*
X65350000Y39685000D03*
X67890000Y39685000D03*
X65350000Y37145000D03*
X67890000Y37145000D03*
%TD*%
D10*
%TO.C,J12*%
X8350000Y48500000D03*
%TD*%
D11*
%TO.C,J8*%
X65350000Y50975000D03*
D12*
X67890000Y50975000D03*
X65350000Y48435000D03*
X67890000Y48435000D03*
X65350000Y45895000D03*
X67890000Y45895000D03*
%TD*%
D11*
%TO.C,J7*%
X65350000Y33475000D03*
D12*
X67890000Y33475000D03*
X65350000Y30935000D03*
X67890000Y30935000D03*
X65350000Y28395000D03*
X67890000Y28395000D03*
%TD*%
D10*
%TO.C,J13*%
X8350000Y52600000D03*
%TD*%
%TO.C,J5*%
X11000000Y10200000D03*
%TD*%
D11*
%TO.C,J1*%
X50775000Y10175000D03*
D12*
X48235000Y10175000D03*
X45695000Y10175000D03*
X43155000Y10175000D03*
X40615000Y10175000D03*
%TD*%
D11*
%TO.C,J9*%
X65350000Y24725000D03*
D12*
X67890000Y24725000D03*
X65350000Y22185000D03*
X67890000Y22185000D03*
X65350000Y19645000D03*
X67890000Y19645000D03*
%TD*%
M02*
