%TF.GenerationSoftware,KiCad,Pcbnew,8.0.7*%
%TF.CreationDate,2025-01-12T17:23:01+01:00*%
%TF.ProjectId,MermaidControlUnit,4d65726d-6169-4644-936f-6e74726f6c55,rev?*%
%TF.SameCoordinates,PXb2564c0PY59d60c0*%
%TF.FileFunction,Paste,Top*%
%TF.FilePolarity,Positive*%
%FSLAX46Y46*%
G04 Gerber Fmt 4.6, Leading zero omitted, Abs format (unit mm)*
G04 Created by KiCad (PCBNEW 8.0.7) date 2025-01-12 17:23:01*
%MOMM*%
%LPD*%
G01*
G04 APERTURE LIST*
G04 Aperture macros list*
%AMRoundRect*
0 Rectangle with rounded corners*
0 $1 Rounding radius*
0 $2 $3 $4 $5 $6 $7 $8 $9 X,Y pos of 4 corners*
0 Add a 4 corners polygon primitive as box body*
4,1,4,$2,$3,$4,$5,$6,$7,$8,$9,$2,$3,0*
0 Add four circle primitives for the rounded corners*
1,1,$1+$1,$2,$3*
1,1,$1+$1,$4,$5*
1,1,$1+$1,$6,$7*
1,1,$1+$1,$8,$9*
0 Add four rect primitives between the rounded corners*
20,1,$1+$1,$2,$3,$4,$5,0*
20,1,$1+$1,$4,$5,$6,$7,0*
20,1,$1+$1,$6,$7,$8,$9,0*
20,1,$1+$1,$8,$9,$2,$3,0*%
%AMFreePoly0*
4,1,19,0.290204,0.301344,0.321117,0.247801,0.322490,0.232106,0.322490,-0.157228,0.301344,-0.215326,0.296017,-0.221139,0.221139,-0.296017,0.165105,-0.322146,0.157228,-0.322490,-0.232106,-0.322490,-0.290204,-0.301344,-0.321117,-0.247801,-0.322490,-0.232106,-0.322490,0.232106,-0.301344,0.290204,-0.247801,0.321117,-0.232106,0.322490,0.232106,0.322490,0.290204,0.301344,0.290204,0.301344,
$1*%
%AMFreePoly1*
4,1,21,0.231572,0.385173,0.236504,0.380653,0.300030,0.317127,0.322198,0.269587,0.322490,0.262904,0.322490,-0.262904,0.304550,-0.312195,0.300030,-0.317127,0.236504,-0.380653,0.188964,-0.402821,0.182281,-0.403113,-0.245807,-0.403113,-0.295098,-0.385173,-0.321325,-0.339746,-0.322490,-0.326430,-0.322490,0.326430,-0.304550,0.375721,-0.259123,0.401948,-0.245807,0.403113,0.182281,0.403113,
0.231572,0.385173,0.231572,0.385173,$1*%
%AMFreePoly2*
4,1,19,0.215326,0.301344,0.221139,0.296017,0.296017,0.221139,0.322146,0.165105,0.322490,0.157228,0.322490,-0.232106,0.301344,-0.290204,0.247801,-0.321117,0.232106,-0.322490,-0.232106,-0.322490,-0.290204,-0.301344,-0.321117,-0.247801,-0.322490,-0.232106,-0.322490,0.232106,-0.301344,0.290204,-0.247801,0.321117,-0.232106,0.322490,0.157228,0.322490,0.215326,0.301344,0.215326,0.301344,
$1*%
%AMFreePoly3*
4,1,21,0.375721,0.304550,0.401948,0.259123,0.403113,0.245807,0.403113,-0.182281,0.385173,-0.231572,0.380653,-0.236504,0.317127,-0.300030,0.269587,-0.322198,0.262904,-0.322490,-0.262904,-0.322490,-0.312195,-0.304550,-0.317127,-0.300030,-0.380653,-0.236504,-0.402821,-0.188964,-0.403113,-0.182281,-0.403113,0.245807,-0.385173,0.295098,-0.339746,0.321325,-0.326430,0.322490,0.326430,0.322490,
0.375721,0.304550,0.375721,0.304550,$1*%
%AMFreePoly4*
4,1,21,0.312195,0.304550,0.317127,0.300030,0.380653,0.236504,0.402821,0.188964,0.403113,0.182281,0.403113,-0.245807,0.385173,-0.295098,0.339746,-0.321325,0.326430,-0.322490,-0.326430,-0.322490,-0.375721,-0.304550,-0.401948,-0.259123,-0.403113,-0.245807,-0.403113,0.182281,-0.385173,0.231572,-0.380653,0.236504,-0.317127,0.300030,-0.269587,0.322198,-0.262904,0.322490,0.262904,0.322490,
0.312195,0.304550,0.312195,0.304550,$1*%
%AMFreePoly5*
4,1,19,0.290204,0.301344,0.321117,0.247801,0.322490,0.232106,0.322490,-0.232106,0.301344,-0.290204,0.247801,-0.321117,0.232106,-0.322490,-0.157228,-0.322490,-0.215326,-0.301344,-0.221139,-0.296017,-0.296017,-0.221139,-0.322146,-0.165105,-0.322490,-0.157228,-0.322490,0.232106,-0.301344,0.290204,-0.247801,0.321117,-0.232106,0.322490,0.232106,0.322490,0.290204,0.301344,0.290204,0.301344,
$1*%
%AMFreePoly6*
4,1,21,0.295098,0.385173,0.321325,0.339746,0.322490,0.326430,0.322490,-0.326430,0.304550,-0.375721,0.259123,-0.401948,0.245807,-0.403113,-0.182281,-0.403113,-0.231572,-0.385173,-0.236504,-0.380653,-0.300030,-0.317127,-0.322198,-0.269587,-0.322490,-0.262904,-0.322490,0.262904,-0.304550,0.312195,-0.300030,0.317127,-0.236504,0.380653,-0.188964,0.402821,-0.182281,0.403113,0.245807,0.403113,
0.295098,0.385173,0.295098,0.385173,$1*%
%AMFreePoly7*
4,1,19,0.290204,0.301344,0.321117,0.247801,0.322490,0.232106,0.322490,-0.232106,0.301344,-0.290204,0.247801,-0.321117,0.232106,-0.322490,-0.232106,-0.322490,-0.290204,-0.301344,-0.321117,-0.247801,-0.322490,-0.232106,-0.322490,0.157228,-0.301344,0.215326,-0.296017,0.221139,-0.221139,0.296017,-0.165105,0.322146,-0.157228,0.322490,0.232106,0.322490,0.290204,0.301344,0.290204,0.301344,
$1*%
G04 Aperture macros list end*
%ADD10RoundRect,0.225000X-0.250000X0.225000X-0.250000X-0.225000X0.250000X-0.225000X0.250000X0.225000X0*%
%ADD11RoundRect,0.200000X-0.200000X-0.275000X0.200000X-0.275000X0.200000X0.275000X-0.200000X0.275000X0*%
%ADD12RoundRect,0.200000X0.200000X0.275000X-0.200000X0.275000X-0.200000X-0.275000X0.200000X-0.275000X0*%
%ADD13R,1.000000X1.800000*%
%ADD14RoundRect,0.250000X-0.250000X-0.475000X0.250000X-0.475000X0.250000X0.475000X-0.250000X0.475000X0*%
%ADD15RoundRect,0.225000X-0.225000X-0.250000X0.225000X-0.250000X0.225000X0.250000X-0.225000X0.250000X0*%
%ADD16RoundRect,0.218750X-0.256250X0.218750X-0.256250X-0.218750X0.256250X-0.218750X0.256250X0.218750X0*%
%ADD17RoundRect,0.218750X0.218750X0.256250X-0.218750X0.256250X-0.218750X-0.256250X0.218750X-0.256250X0*%
%ADD18RoundRect,0.218750X-0.218750X-0.256250X0.218750X-0.256250X0.218750X0.256250X-0.218750X0.256250X0*%
%ADD19RoundRect,0.225000X0.250000X-0.225000X0.250000X0.225000X-0.250000X0.225000X-0.250000X-0.225000X0*%
%ADD20R,0.850000X0.650000*%
%ADD21R,0.500000X0.300000*%
%ADD22RoundRect,0.250000X0.250000X0.475000X-0.250000X0.475000X-0.250000X-0.475000X0.250000X-0.475000X0*%
%ADD23RoundRect,0.225000X0.225000X0.250000X-0.225000X0.250000X-0.225000X-0.250000X0.225000X-0.250000X0*%
%ADD24R,1.600000X0.300000*%
%ADD25RoundRect,0.200000X0.275000X-0.200000X0.275000X0.200000X-0.275000X0.200000X-0.275000X-0.200000X0*%
%ADD26RoundRect,0.150000X-0.587500X-0.150000X0.587500X-0.150000X0.587500X0.150000X-0.587500X0.150000X0*%
%ADD27R,0.850000X0.920000*%
%ADD28R,0.250000X0.750000*%
%ADD29RoundRect,0.050400X0.249600X-0.069600X0.249600X0.069600X-0.249600X0.069600X-0.249600X-0.069600X0*%
%ADD30RoundRect,0.050400X0.069600X-0.249600X0.069600X0.249600X-0.069600X0.249600X-0.069600X-0.249600X0*%
%ADD31RoundRect,0.050000X0.250000X-0.050000X0.250000X0.050000X-0.250000X0.050000X-0.250000X-0.050000X0*%
%ADD32RoundRect,0.075000X-0.075000X0.662500X-0.075000X-0.662500X0.075000X-0.662500X0.075000X0.662500X0*%
%ADD33RoundRect,0.075000X-0.662500X0.075000X-0.662500X-0.075000X0.662500X-0.075000X0.662500X0.075000X0*%
%ADD34R,1.900000X2.400000*%
%ADD35RoundRect,0.200000X-0.275000X0.200000X-0.275000X-0.200000X0.275000X-0.200000X0.275000X0.200000X0*%
%ADD36R,4.953000X3.175000*%
%ADD37FreePoly0,0.000000*%
%ADD38FreePoly1,0.000000*%
%ADD39FreePoly2,0.000000*%
%ADD40FreePoly3,0.000000*%
%ADD41RoundRect,0.201557X-0.201556X-0.201556X0.201556X-0.201556X0.201556X0.201556X-0.201556X0.201556X0*%
%ADD42FreePoly4,0.000000*%
%ADD43FreePoly5,0.000000*%
%ADD44FreePoly6,0.000000*%
%ADD45FreePoly7,0.000000*%
%ADD46RoundRect,0.062500X-0.337500X-0.062500X0.337500X-0.062500X0.337500X0.062500X-0.337500X0.062500X0*%
%ADD47RoundRect,0.062500X-0.062500X-0.337500X0.062500X-0.337500X0.062500X0.337500X-0.062500X0.337500X0*%
%ADD48RoundRect,0.150000X-0.150000X0.587500X-0.150000X-0.587500X0.150000X-0.587500X0.150000X0.587500X0*%
%ADD49RoundRect,0.150000X-0.512500X-0.150000X0.512500X-0.150000X0.512500X0.150000X-0.512500X0.150000X0*%
G04 APERTURE END LIST*
D10*
%TO.C,C9*%
X50100000Y35412500D03*
X50100000Y33862500D03*
%TD*%
D11*
%TO.C,R30*%
X25775000Y48150000D03*
X27425000Y48150000D03*
%TD*%
D10*
%TO.C,C56*%
X61500000Y10725000D03*
X61500000Y9175000D03*
%TD*%
D12*
%TO.C,R35*%
X27425000Y53400000D03*
X25775000Y53400000D03*
%TD*%
D13*
%TO.C,Y2*%
X48350000Y46637500D03*
X45850000Y46637500D03*
%TD*%
D12*
%TO.C,R12*%
X47425000Y16200000D03*
X45775000Y16200000D03*
%TD*%
D14*
%TO.C,C60*%
X23600000Y39450000D03*
X25500000Y39450000D03*
%TD*%
D15*
%TO.C,C51*%
X25825000Y56900000D03*
X27375000Y56900000D03*
%TD*%
D16*
%TO.C,D3*%
X50500000Y24987500D03*
X50500000Y23412500D03*
%TD*%
D17*
%TO.C,D8*%
X27387500Y46400000D03*
X25812500Y46400000D03*
%TD*%
D18*
%TO.C,D7*%
X17462500Y39950000D03*
X19037500Y39950000D03*
%TD*%
D17*
%TO.C,D6*%
X19037500Y38200000D03*
X17462500Y38200000D03*
%TD*%
D19*
%TO.C,C44*%
X16100000Y53350000D03*
X16100000Y54900000D03*
%TD*%
D20*
%TO.C,U11*%
X57250000Y10450000D03*
X57250000Y9575000D03*
D21*
X56350000Y10762500D03*
X56350000Y10262500D03*
X56350000Y9762500D03*
X56350000Y9262500D03*
X58150000Y9262500D03*
X58150000Y9762500D03*
X58150000Y10262500D03*
X58150000Y10762500D03*
%TD*%
D22*
%TO.C,C58*%
X15700000Y18700000D03*
X13800000Y18700000D03*
%TD*%
D11*
%TO.C,R34*%
X31975000Y49850000D03*
X33625000Y49850000D03*
%TD*%
D15*
%TO.C,C26*%
X60475000Y59450000D03*
X62025000Y59450000D03*
%TD*%
D11*
%TO.C,R28*%
X30175000Y35200000D03*
X31825000Y35200000D03*
%TD*%
D15*
%TO.C,C16*%
X26975000Y26450000D03*
X28525000Y26450000D03*
%TD*%
%TO.C,C48*%
X19775000Y55150000D03*
X21325000Y55150000D03*
%TD*%
%TO.C,C38*%
X11075000Y44400000D03*
X12625000Y44400000D03*
%TD*%
D10*
%TO.C,C12*%
X41750000Y19725000D03*
X41750000Y18175000D03*
%TD*%
D23*
%TO.C,C23*%
X15775000Y14450000D03*
X14225000Y14450000D03*
%TD*%
D24*
%TO.C,U8*%
X57800000Y41425000D03*
X57800000Y40775000D03*
X57800000Y40125000D03*
X57800000Y39475000D03*
X61200000Y39475000D03*
X61200000Y40125000D03*
X61200000Y40775000D03*
X61200000Y41425000D03*
%TD*%
D17*
%TO.C,D4*%
X19037500Y34700000D03*
X17462500Y34700000D03*
%TD*%
D25*
%TO.C,R38*%
X40000000Y18125000D03*
X40000000Y19775000D03*
%TD*%
D11*
%TO.C,R31*%
X25775000Y49900000D03*
X27425000Y49900000D03*
%TD*%
D23*
%TO.C,C33*%
X58525000Y18200000D03*
X56975000Y18200000D03*
%TD*%
D15*
%TO.C,C43*%
X14325000Y47900000D03*
X15875000Y47900000D03*
%TD*%
D23*
%TO.C,C22*%
X15875000Y24700000D03*
X14325000Y24700000D03*
%TD*%
D24*
%TO.C,U4*%
X57800000Y57925000D03*
X57800000Y57275000D03*
X57800000Y56625000D03*
X57800000Y55975000D03*
X61200000Y55975000D03*
X61200000Y56625000D03*
X61200000Y57275000D03*
X61200000Y57925000D03*
%TD*%
D23*
%TO.C,C3*%
X39125000Y42137500D03*
X37575000Y42137500D03*
%TD*%
D26*
%TO.C,D1*%
X38062500Y16400000D03*
X38062500Y14500000D03*
X39937500Y15450000D03*
%TD*%
D27*
%TO.C,U10*%
X19500000Y50090000D03*
X20550000Y50090000D03*
X21600000Y50090000D03*
D28*
X18750000Y50650000D03*
X22350000Y50650000D03*
D27*
X19500000Y51210000D03*
X20550000Y51210000D03*
X21600000Y51210000D03*
D29*
X18400000Y49900000D03*
D30*
X18800000Y49000000D03*
X19300000Y49000000D03*
X19800000Y49000000D03*
X20300000Y49000000D03*
X20800000Y49000000D03*
X21300000Y49000000D03*
X21800000Y49000000D03*
X22300000Y49000000D03*
D29*
X22700000Y49900000D03*
X22700000Y51400000D03*
D30*
X22300000Y52300000D03*
X21800000Y52300000D03*
X21300000Y52300000D03*
X20800000Y52300000D03*
X20300000Y52300000D03*
X19800000Y52300000D03*
X19300000Y52300000D03*
X18800000Y52300000D03*
D29*
X18400000Y51400000D03*
D31*
X18400000Y50375000D03*
X22700000Y50375000D03*
X18400000Y50925000D03*
X22700000Y50925000D03*
%TD*%
D19*
%TO.C,C45*%
X14350000Y53350000D03*
X14350000Y54900000D03*
%TD*%
D17*
%TO.C,F1*%
X15787500Y12700000D03*
X14212500Y12700000D03*
%TD*%
D32*
%TO.C,U1*%
X44600000Y35800000D03*
X44100000Y35800000D03*
X43600000Y35800000D03*
X43100000Y35800000D03*
X42600000Y35800000D03*
X42100000Y35800000D03*
X41600000Y35800000D03*
X41100000Y35800000D03*
X40600000Y35800000D03*
X40100000Y35800000D03*
X39600000Y35800000D03*
X39100000Y35800000D03*
D33*
X37687500Y34387500D03*
X37687500Y33887500D03*
X37687500Y33387500D03*
X37687500Y32887500D03*
X37687500Y32387500D03*
X37687500Y31887500D03*
X37687500Y31387500D03*
X37687500Y30887500D03*
X37687500Y30387500D03*
X37687500Y29887500D03*
X37687500Y29387500D03*
X37687500Y28887500D03*
D32*
X39100000Y27475000D03*
X39600000Y27475000D03*
X40100000Y27475000D03*
X40600000Y27475000D03*
X41100000Y27475000D03*
X41600000Y27475000D03*
X42100000Y27475000D03*
X42600000Y27475000D03*
X43100000Y27475000D03*
X43600000Y27475000D03*
X44100000Y27475000D03*
X44600000Y27475000D03*
D33*
X46012500Y28887500D03*
X46012500Y29387500D03*
X46012500Y29887500D03*
X46012500Y30387500D03*
X46012500Y30887500D03*
X46012500Y31387500D03*
X46012500Y31887500D03*
X46012500Y32387500D03*
X46012500Y32887500D03*
X46012500Y33387500D03*
X46012500Y33887500D03*
X46012500Y34387500D03*
%TD*%
D34*
%TO.C,Y1*%
X42150000Y45137500D03*
X38050000Y45137500D03*
%TD*%
D11*
%TO.C,R23*%
X32425000Y18950000D03*
X34075000Y18950000D03*
%TD*%
%TO.C,R36*%
X25775000Y58650000D03*
X27425000Y58650000D03*
%TD*%
D18*
%TO.C,D5*%
X17462500Y36450000D03*
X19037500Y36450000D03*
%TD*%
D19*
%TO.C,C46*%
X12600000Y53350000D03*
X12600000Y54900000D03*
%TD*%
D12*
%TO.C,R13*%
X25325000Y33450000D03*
X23675000Y33450000D03*
%TD*%
D15*
%TO.C,C54*%
X19800000Y42650000D03*
X21350000Y42650000D03*
%TD*%
D22*
%TO.C,C59*%
X15700000Y16450000D03*
X13800000Y16450000D03*
%TD*%
D15*
%TO.C,C27*%
X60475000Y34700000D03*
X62025000Y34700000D03*
%TD*%
D24*
%TO.C,U6*%
X57800000Y49675000D03*
X57800000Y49025000D03*
X57800000Y48375000D03*
X57800000Y47725000D03*
X61200000Y47725000D03*
X61200000Y48375000D03*
X61200000Y49025000D03*
X61200000Y49675000D03*
%TD*%
D15*
%TO.C,C10*%
X48925000Y53950000D03*
X50475000Y53950000D03*
%TD*%
D12*
%TO.C,R9*%
X50525000Y52200000D03*
X48875000Y52200000D03*
%TD*%
D25*
%TO.C,R5*%
X48750000Y26575000D03*
X48750000Y28225000D03*
%TD*%
D15*
%TO.C,C1*%
X40825000Y42137500D03*
X42375000Y42137500D03*
%TD*%
%TO.C,C31*%
X60475000Y26450000D03*
X62025000Y26450000D03*
%TD*%
%TO.C,C52*%
X19800000Y46150000D03*
X21350000Y46150000D03*
%TD*%
D35*
%TO.C,R7*%
X45250000Y39775000D03*
X45250000Y38125000D03*
%TD*%
D15*
%TO.C,C36*%
X11075000Y47900000D03*
X12625000Y47900000D03*
%TD*%
D12*
%TO.C,R40*%
X33625000Y53450000D03*
X31975000Y53450000D03*
%TD*%
D15*
%TO.C,C30*%
X60475000Y51200000D03*
X62025000Y51200000D03*
%TD*%
%TO.C,C18*%
X26975000Y28200000D03*
X28525000Y28200000D03*
%TD*%
D12*
%TO.C,R6*%
X42575000Y12900000D03*
X40925000Y12900000D03*
%TD*%
D36*
%TO.C,L1*%
X22500000Y23458000D03*
X22500000Y14442000D03*
%TD*%
D35*
%TO.C,R3*%
X48750000Y25025000D03*
X48750000Y23375000D03*
%TD*%
D23*
%TO.C,C6*%
X45375000Y25137500D03*
X43825000Y25137500D03*
%TD*%
D12*
%TO.C,R21*%
X15925000Y26450000D03*
X14275000Y26450000D03*
%TD*%
D10*
%TO.C,C7*%
X48350000Y35412500D03*
X48350000Y33862500D03*
%TD*%
D25*
%TO.C,R24*%
X30750000Y14875000D03*
X30750000Y16525000D03*
%TD*%
D15*
%TO.C,C34*%
X60475000Y42950000D03*
X62025000Y42950000D03*
%TD*%
D11*
%TO.C,R39*%
X56425000Y12200000D03*
X58075000Y12200000D03*
%TD*%
D15*
%TO.C,C20*%
X26975000Y33450000D03*
X28525000Y33450000D03*
%TD*%
D19*
%TO.C,C39*%
X12600000Y49850000D03*
X12600000Y51400000D03*
%TD*%
D12*
%TO.C,R15*%
X12725000Y28200000D03*
X11075000Y28200000D03*
%TD*%
D24*
%TO.C,U5*%
X57800000Y33175000D03*
X57800000Y32525000D03*
X57800000Y31875000D03*
X57800000Y31225000D03*
X61200000Y31225000D03*
X61200000Y31875000D03*
X61200000Y32525000D03*
X61200000Y33175000D03*
%TD*%
D25*
%TO.C,R1*%
X36000000Y14625000D03*
X36000000Y16275000D03*
%TD*%
D23*
%TO.C,C29*%
X58525000Y26450000D03*
X56975000Y26450000D03*
%TD*%
D11*
%TO.C,R29*%
X30175000Y33450000D03*
X31825000Y33450000D03*
%TD*%
D15*
%TO.C,C8*%
X40075000Y38387500D03*
X41625000Y38387500D03*
%TD*%
%TO.C,C17*%
X23725000Y35200000D03*
X25275000Y35200000D03*
%TD*%
D11*
%TO.C,R32*%
X25775000Y51650000D03*
X27425000Y51650000D03*
%TD*%
D12*
%TO.C,R11*%
X43825000Y52200000D03*
X42175000Y52200000D03*
%TD*%
D15*
%TO.C,C11*%
X42225000Y53950000D03*
X43775000Y53950000D03*
%TD*%
D24*
%TO.C,U7*%
X57800000Y24925000D03*
X57800000Y24275000D03*
X57800000Y23625000D03*
X57800000Y22975000D03*
X61200000Y22975000D03*
X61200000Y23625000D03*
X61200000Y24275000D03*
X61200000Y24925000D03*
%TD*%
D12*
%TO.C,R17*%
X12725000Y31675000D03*
X11075000Y31675000D03*
%TD*%
D15*
%TO.C,C49*%
X19775000Y56900000D03*
X21325000Y56900000D03*
%TD*%
D12*
%TO.C,R18*%
X15925000Y29975000D03*
X14275000Y29975000D03*
%TD*%
D23*
%TO.C,C25*%
X58525000Y34700000D03*
X56975000Y34700000D03*
%TD*%
D19*
%TO.C,C5*%
X35600000Y27325000D03*
X35600000Y28875000D03*
%TD*%
D11*
%TO.C,R22*%
X32425000Y12950000D03*
X34075000Y12950000D03*
%TD*%
D14*
%TO.C,C61*%
X23550000Y37200000D03*
X25450000Y37200000D03*
%TD*%
D23*
%TO.C,C32*%
X58525000Y42950000D03*
X56975000Y42950000D03*
%TD*%
%TO.C,C28*%
X58525000Y51200000D03*
X56975000Y51200000D03*
%TD*%
D15*
%TO.C,C35*%
X60475000Y18200000D03*
X62025000Y18200000D03*
%TD*%
D12*
%TO.C,R14*%
X12725000Y24700000D03*
X11075000Y24700000D03*
%TD*%
D19*
%TO.C,C40*%
X14350000Y49850000D03*
X14350000Y51400000D03*
%TD*%
D15*
%TO.C,C21*%
X26975000Y31700000D03*
X28525000Y31700000D03*
%TD*%
D23*
%TO.C,C47*%
X33575000Y48150000D03*
X32025000Y48150000D03*
%TD*%
D15*
%TO.C,C50*%
X19775000Y58650000D03*
X21325000Y58650000D03*
%TD*%
D12*
%TO.C,R4*%
X40925000Y47887500D03*
X39275000Y47887500D03*
%TD*%
%TO.C,R19*%
X12725000Y29950000D03*
X11075000Y29950000D03*
%TD*%
D37*
%TO.C,U3*%
X19300000Y30400000D03*
D38*
X19300000Y29500000D03*
X19300000Y28500000D03*
D39*
X19300000Y27600000D03*
D40*
X20200000Y30400000D03*
D41*
X20200000Y29500000D03*
X20200000Y28500000D03*
D42*
X20200000Y27600000D03*
D40*
X21200000Y30400000D03*
D41*
X21200000Y29500000D03*
X21200000Y28500000D03*
D42*
X21200000Y27600000D03*
D43*
X22100000Y30400000D03*
D44*
X22100000Y29500000D03*
X22100000Y28500000D03*
D45*
X22100000Y27600000D03*
D46*
X18250000Y30750000D03*
X18250000Y30250000D03*
X18250000Y29750000D03*
X18250000Y29250000D03*
X18250000Y28750000D03*
X18250000Y28250000D03*
X18250000Y27750000D03*
X18250000Y27250000D03*
D47*
X18950000Y26550000D03*
X19450000Y26550000D03*
X19950000Y26550000D03*
X20450000Y26550000D03*
X20950000Y26550000D03*
X21450000Y26550000D03*
X21950000Y26550000D03*
X22450000Y26550000D03*
D46*
X23150000Y27250000D03*
X23150000Y27750000D03*
X23150000Y28250000D03*
X23150000Y28750000D03*
X23150000Y29250000D03*
X23150000Y29750000D03*
X23150000Y30250000D03*
X23150000Y30750000D03*
D47*
X22450000Y31450000D03*
X21950000Y31450000D03*
X21450000Y31450000D03*
X20950000Y31450000D03*
X20450000Y31450000D03*
X19950000Y31450000D03*
X19450000Y31450000D03*
X18950000Y31450000D03*
%TD*%
D19*
%TO.C,C4*%
X46100000Y43112500D03*
X46100000Y44662500D03*
%TD*%
D15*
%TO.C,C42*%
X14325000Y46150000D03*
X15875000Y46150000D03*
%TD*%
D10*
%TO.C,C15*%
X51500000Y19725000D03*
X51500000Y18175000D03*
%TD*%
D12*
%TO.C,R10*%
X40575000Y52200000D03*
X38925000Y52200000D03*
%TD*%
%TO.C,R37*%
X27425000Y55150000D03*
X25775000Y55150000D03*
%TD*%
D15*
%TO.C,C37*%
X11075000Y46150000D03*
X12625000Y46150000D03*
%TD*%
D12*
%TO.C,R33*%
X33625000Y51650000D03*
X31975000Y51650000D03*
%TD*%
D10*
%TO.C,C55*%
X59750000Y10725000D03*
X59750000Y9175000D03*
%TD*%
D15*
%TO.C,C53*%
X19775000Y44400000D03*
X21325000Y44400000D03*
%TD*%
D16*
%TO.C,D2*%
X50500000Y39737500D03*
X50500000Y38162500D03*
%TD*%
D12*
%TO.C,R16*%
X15900000Y31675000D03*
X14250000Y31675000D03*
%TD*%
%TO.C,R20*%
X12725000Y26450000D03*
X11075000Y26450000D03*
%TD*%
D48*
%TO.C,Q1*%
X34200000Y16887500D03*
X32300000Y16887500D03*
X33250000Y15012500D03*
%TD*%
D12*
%TO.C,R25*%
X34075000Y20700000D03*
X32425000Y20700000D03*
%TD*%
D11*
%TO.C,R27*%
X30175000Y36950000D03*
X31825000Y36950000D03*
%TD*%
D10*
%TO.C,C14*%
X49750000Y19725000D03*
X49750000Y18175000D03*
%TD*%
%TO.C,C57*%
X53475000Y10900000D03*
X53475000Y9350000D03*
%TD*%
D23*
%TO.C,C24*%
X58525000Y59450000D03*
X56975000Y59450000D03*
%TD*%
D10*
%TO.C,C13*%
X43500000Y19725000D03*
X43500000Y18175000D03*
%TD*%
D25*
%TO.C,R2*%
X47000000Y38125000D03*
X47000000Y39775000D03*
%TD*%
D24*
%TO.C,U9*%
X57800000Y16675000D03*
X57800000Y16025000D03*
X57800000Y15375000D03*
X57800000Y14725000D03*
X61200000Y14725000D03*
X61200000Y15375000D03*
X61200000Y16025000D03*
X61200000Y16675000D03*
%TD*%
D15*
%TO.C,C19*%
X26975000Y29950000D03*
X28525000Y29950000D03*
%TD*%
D49*
%TO.C,U2*%
X45462500Y19650000D03*
X45462500Y18700000D03*
X45462500Y17750000D03*
X47737500Y17750000D03*
X47737500Y19650000D03*
%TD*%
D15*
%TO.C,C41*%
X14325000Y44400000D03*
X15875000Y44400000D03*
%TD*%
D19*
%TO.C,C2*%
X48100000Y43112500D03*
X48100000Y44662500D03*
%TD*%
D11*
%TO.C,R26*%
X14175000Y34700000D03*
X15825000Y34700000D03*
%TD*%
D12*
%TO.C,R8*%
X47325000Y52200000D03*
X45675000Y52200000D03*
%TD*%
M02*
